<?xml version="1.0" encoding="utf-8"?>
<!-- Generator: Adobe Illustrator 21.0.0, SVG Export Plug-In . SVG Version: 6.00 Build 0)  -->
<svg version="1.1" id="Calque_1" xmlns="http://www.w3.org/2000/svg" xmlns:xlink="http://www.w3.org/1999/xlink" x="0px" y="0px"
	 viewBox="0 0 3000 1335" style="enable-background:new 0 0 3000 1335;" xml:space="preserve">
<style type="text/css">
	.st0{fill:#847667;}
	.st1{fill:none;}
	.st2{fill:#F6E24A;}
	.st3{fill:#79C5E8;}
	.st4{fill:#86AF58;}
	.st5{fill:#F3C240;}
	.st6{fill:#87974D;}
	.st7{fill:#DF7D7D;}
	.st8{fill:#61B0C6;}
	.st9{fill:#6F6069;}
	.st10{fill:#FFFFFF;}
	.st11{fill:#E4E4A4;}
	.st12{fill:#DA89B7;}
	.st13{fill:#B2D5E5;}
	.st14{fill:#BDCF80;}
	.st15{fill:#54996F;}
	.st16{fill:#7F7664;}
</style>
<g>
	<path class="st0" d="M855.1,1214.9v-97.2H866v87.6h37v9.6H855.1z"/>
	<path class="st0" d="M911.5,1142.1l9.2-24.4h9.2l-10.3,24.4H911.5z"/>
	<path class="st0" d="M951.2,1214.9v-97.2h10.5v97.2H951.2z"/>
	<path class="st0" d="M981.5,1214.9v-97.2h11l56.9,81.2l-0.1-81.2h10.6v97.2h-10.6l-57.6-81.8l0.3,81.8H981.5z"/>
	<path class="st0" d="M1079.3,1214.9v-97.2h49.4v9.6h-38.9v34.1h38.6v9.6h-38.6v43.9H1079.3z"/>
	<path class="st0" d="M1138.6,1166.7v-0.1c0-7.3,1.4-14.1,4.1-20.5c2.7-6.3,6.4-11.7,11-16.1c4.6-4.4,10-7.8,16.2-10.3
		c6.2-2.5,12.7-3.7,19.5-3.7c7,0,13.7,1.3,20,3.9c6.3,2.6,11.7,6.1,16.2,10.6c4.5,4.5,8.1,9.8,10.7,16c2.6,6.2,4,12.8,4,19.8
		c0,7-1.3,13.6-4,19.8c-2.6,6.2-6.2,11.6-10.7,16c-4.5,4.5-9.9,8-16.2,10.6c-6.3,2.6-13,3.9-20,3.9c-7.1,0-13.7-1.3-20-3.9
		c-6.3-2.6-11.7-6.2-16.1-10.6c-4.5-4.5-8-9.8-10.6-15.9C1139.9,1180,1138.6,1173.5,1138.6,1166.7z M1149.5,1166.4
		c0,7.5,1.7,14.4,5.2,20.6c3.5,6.2,8.2,11.1,14.4,14.7c6.1,3.6,12.9,5.4,20.3,5.4c7.5,0,14.3-1.8,20.4-5.5s10.9-8.6,14.3-14.8
		c3.4-6.2,5.1-13,5.1-20.3c0-5.5-1-10.7-3-15.7c-2-5-4.8-9.3-8.3-13c-3.5-3.7-7.8-6.6-12.7-8.7c-5-2.2-10.3-3.3-15.9-3.3
		c-7.4,0-14.2,1.8-20.3,5.4c-6.1,3.6-10.9,8.5-14.3,14.7s-5.1,13-5.1,20.4V1166.4z"/>
	<path class="st0" d="M1253.9,1214.9v-97.2h25.3c7.3,0,13,0.4,17.1,1.3c4.1,0.8,7.5,2.1,10.2,3.8c4,2.4,7.2,6,9.6,10.8
		c2.4,4.8,3.7,9.9,3.7,15.4c0,0.2,0,0.4,0,0.7c0,7-1.9,13.1-5.8,18.3c-2.7,3.6-5.7,6.2-9.1,7.7c-3.4,1.5-7.6,2.5-12.6,3l24.2,36.4
		h-11.8l-27.4-42.5h3.1c3.2,0,5.7-0.1,7.7-0.2c2-0.1,4.4-0.6,7.2-1.3c2.8-0.8,5-1.9,6.7-3.4c4.9-4.7,7.3-10.7,7.3-17.9
		c0-3.7-0.9-7.3-2.6-10.7c-1.7-3.4-4-6.1-7-8c-2.3-1.5-4.9-2.4-7.8-2.9c-3-0.5-6.9-0.7-11.9-0.7h-15.3v87.6H1253.9z"/>
	<path class="st0" d="M1332,1214.9v-97.2h15.2l36,81.6l35.8-81.6h15.1v97.2H1424l0.3-86.4l-37.6,86.4h-7l-37.8-86.4l0.3,86.4H1332z"
		/>
	<path class="st0" d="M1445,1214.9l40.6-97.2h10.5l40.2,97.2h-11.9l-11.3-27.1h-45.3l-11.2,27.1H1445z M1471.1,1178.7h38.7
		l-19.4-48.7L1471.1,1178.7z"/>
	<path class="st0" d="M1538.2,1127.3v-9.6h58.9v9.6h-24v87.6h-10.9v-87.6H1538.2z"/>
	<path class="st0" d="M1607.7,1214.9v-97.2h10.5v97.2H1607.7z"/>
	<path class="st0" d="M1633.4,1166.7v-0.1c0-7.3,1.4-14.1,4.1-20.5c2.7-6.3,6.4-11.7,11-16.1c4.6-4.4,10-7.8,16.2-10.3
		c6.2-2.5,12.7-3.7,19.5-3.7c7,0,13.7,1.3,20,3.9c6.3,2.6,11.7,6.1,16.2,10.6c4.5,4.5,8.1,9.8,10.7,16c2.6,6.2,4,12.8,4,19.8
		c0,7-1.3,13.6-4,19.8c-2.6,6.2-6.2,11.6-10.7,16c-4.5,4.5-9.9,8-16.2,10.6c-6.3,2.6-13,3.9-20,3.9s-13.7-1.3-20-3.9
		s-11.7-6.2-16.1-10.6c-4.5-4.5-8-9.8-10.6-15.9C1634.7,1180,1633.4,1173.5,1633.4,1166.7z M1644.3,1166.4c0,7.5,1.7,14.4,5.2,20.6
		c3.5,6.2,8.2,11.1,14.4,14.7s12.9,5.4,20.3,5.4c7.5,0,14.3-1.8,20.4-5.5c6.1-3.7,10.9-8.6,14.3-14.8c3.4-6.2,5.1-13,5.1-20.3
		c0-5.5-1-10.7-3-15.7c-2-5-4.8-9.3-8.3-13s-7.8-6.6-12.7-8.7c-5-2.2-10.3-3.3-15.9-3.3c-7.4,0-14.2,1.8-20.3,5.4
		c-6.1,3.6-10.9,8.5-14.3,14.7s-5.1,13-5.1,20.4V1166.4z"/>
	<path class="st0" d="M1749.8,1214.9v-97.2h11l56.9,81.2l-0.1-81.2h10.6v97.2h-10.6l-57.6-81.8l0.3,81.8H1749.8z"/>
	<path class="st0" d="M1876.5,1127.3v-9.6h58.9v9.6h-24v87.6h-10.9v-87.6H1876.5z"/>
	<path class="st0" d="M1941.4,1166.7v-0.1c0-7.3,1.4-14.1,4.1-20.5c2.7-6.3,6.4-11.7,11-16.1c4.6-4.4,10-7.8,16.2-10.3
		c6.2-2.5,12.7-3.7,19.5-3.7c7,0,13.7,1.3,20,3.9c6.3,2.6,11.7,6.1,16.2,10.6c4.5,4.5,8.1,9.8,10.7,16c2.6,6.2,4,12.8,4,19.8
		c0,7-1.3,13.6-4,19.8c-2.6,6.2-6.2,11.6-10.7,16c-4.5,4.5-9.9,8-16.2,10.6c-6.3,2.6-13,3.9-20,3.9c-7.1,0-13.7-1.3-20-3.9
		s-11.7-6.2-16.1-10.6c-4.5-4.5-8-9.8-10.6-15.9C1942.7,1180,1941.4,1173.5,1941.4,1166.7z M1952.3,1166.4c0,7.5,1.7,14.4,5.2,20.6
		c3.5,6.2,8.2,11.1,14.4,14.7c6.1,3.6,12.9,5.4,20.3,5.4c7.5,0,14.3-1.8,20.4-5.5c6.1-3.7,10.9-8.6,14.3-14.8
		c3.4-6.2,5.1-13,5.1-20.3c0-5.5-1-10.7-3-15.7c-2-5-4.8-9.3-8.3-13s-7.8-6.6-12.7-8.7c-5-2.2-10.3-3.3-15.9-3.3
		c-7.4,0-14.2,1.8-20.3,5.4c-6.1,3.6-10.9,8.5-14.3,14.7s-5.1,13-5.1,20.4V1166.4z"/>
	<path class="st0" d="M2057.4,1179.3v-61.6h10.9v61.6c0,3.2,0.1,5.5,0.2,7.1c0.1,1.6,0.5,3.5,1.2,5.9s1.8,4.5,3.2,6.6
		c1.7,2.5,4.1,4.5,7.1,5.9c3,1.5,6.3,2.2,9.8,2.2c3.5,0,6.7-0.7,9.7-2.2c3-1.5,5.3-3.4,7-5.8c1.5-2,2.5-4.2,3.2-6.5
		c0.7-2.3,1.1-4.3,1.2-5.9c0.1-1.6,0.2-4.1,0.2-7.3v-61.6h10.9v61.6c0,0.5,0,0.9,0,1.3c0,2.7-0.1,5-0.3,7.2
		c-0.3,2.5-0.8,5.1-1.5,7.8c-0.7,2.7-1.9,5.2-3.4,7.5c-1.5,2.3-3.5,4.4-5.9,6.2c-5.8,4.9-12.8,7.4-21.1,7.4c-3.8,0-7.6-0.6-11.4-1.8
		c-3.8-1.2-7.2-3.1-10-5.6c-2-1.6-3.7-3.4-5.1-5.3c-1.4-2-2.5-3.9-3.3-5.7c-0.8-1.8-1.4-3.9-1.8-6.3c-0.4-2.4-0.7-4.4-0.8-6.2
		C2057.4,1184,2057.4,1181.9,2057.4,1179.3z"/>
	<path class="st0" d="M2140.2,1214.9v-97.2h25.3c7.3,0,13,0.4,17.1,1.3c4.1,0.8,7.5,2.1,10.2,3.8c4,2.4,7.2,6,9.6,10.8
		c2.4,4.8,3.7,9.9,3.7,15.4c0,0.2,0,0.4,0,0.7c0,7-1.9,13.1-5.8,18.3c-2.7,3.6-5.7,6.2-9.1,7.7c-3.4,1.5-7.6,2.5-12.6,3l24.2,36.4
		H2191l-27.4-42.5h3.1c3.2,0,5.7-0.1,7.7-0.2c2-0.1,4.4-0.6,7.2-1.3c2.8-0.8,5-1.9,6.7-3.4c4.9-4.7,7.3-10.7,7.3-17.9
		c0-3.7-0.9-7.3-2.6-10.7c-1.7-3.4-4-6.1-7-8c-2.3-1.5-4.9-2.4-7.8-2.9c-3-0.5-6.9-0.7-11.9-0.7h-15.3v87.6H2140.2z"/>
	<path class="st0" d="M2218.2,1214.9v-97.2h10.5v97.2H2218.2z"/>
	<path class="st0" d="M2243.6,1187.9h10.9c0.3,3.1,1,5.9,2.1,8.3c1.1,2.4,2.3,4.3,3.7,5.7s3,2.5,4.7,3.5s3.3,1.5,4.8,1.8
		c1.4,0.3,2.8,0.5,4.2,0.5c5.2,0,9.8-1.8,13.7-5.3s5.8-8,5.8-13.3c0-3.1-0.5-5.7-1.5-8c-1-2.2-2.8-4.1-5.4-5.7
		c-2.5-1.5-4.6-2.7-6.3-3.3c-1.6-0.7-4.3-1.6-8.1-2.8c-0.7-0.3-1.2-0.5-1.6-0.6c-1.7-0.5-3-0.9-3.9-1.2c-0.9-0.3-2.4-0.9-4.4-1.7
		c-2-0.8-3.6-1.6-4.8-2.4c-1.2-0.8-2.7-1.9-4.3-3.3c-1.6-1.4-2.9-2.9-3.9-4.4c-0.9-1.5-1.8-3.4-2.4-5.6s-1-4.6-1-7.1
		c0-0.2,0-0.3,0-0.5c0-5.3,1.3-10,4-14c2.8-4.1,6.3-7.2,10.7-9.3c4.3-2,9-3,14-3c2.5,0,5,0.3,7.4,0.8c2.4,0.6,4.8,1.5,7.1,2.7
		c2.3,1.3,4.4,2.8,6.2,4.7c1.8,1.9,3.3,4.3,4.6,7.2c1.3,2.9,2.1,6.1,2.4,9.6h-10.9c-0.3-1.5-0.6-2.9-1-4.1c-0.4-1.2-1-2.6-1.9-4.2
		c-0.9-1.5-1.9-2.8-3-3.9c-1.2-1.1-2.7-1.9-4.7-2.7c-1.9-0.7-4.2-1.1-6.6-1.1c-5,0-9.2,1.6-12.7,4.7c-3.4,3.1-5.1,7.2-5.1,12.2
		c0,1.6,0.2,3.1,0.6,4.5c0.4,1.4,0.8,2.6,1.5,3.6c0.6,1,1.5,2,2.7,3c1.2,0.9,2.3,1.7,3.4,2.4c1.1,0.6,2.6,1.4,4.4,2.1
		c1.8,0.8,3.5,1.4,5,1.9c1.5,0.5,3.4,1.2,5.7,2c0.5,0.2,0.9,0.3,1.1,0.4c5.6,2.1,9.8,3.9,12.4,5.5c7.5,4.9,11.3,11.8,11.4,20.8
		c0,3.9-0.7,7.6-2.2,11.2s-3.5,6.5-6.1,9.1c-2.6,2.6-5.8,4.6-9.6,6.1c-3.8,1.5-7.9,2.2-12.4,2.2c-5.5,0-10.5-1.1-15-3.3
		c-4.5-2.2-8.1-5.5-10.9-9.9C2245.4,1199.1,2243.8,1193.9,2243.6,1187.9z"/>
	<path class="st0" d="M2310.1,1127.3v-9.6h58.9v9.6h-24v87.6H2334v-87.6H2310.1z"/>
	<path class="st0" d="M2379.6,1214.9v-97.2h10.5v97.2H2379.6z"/>
	<path class="st0" d="M2406.6,1166.5c0-9.2,2.2-17.6,6.6-25.3c4.4-7.7,10.5-13.8,18.2-18.3c7.8-4.5,16.4-6.8,25.9-6.8
		c7.1,0,13.8,1.3,20.1,3.9c6.3,2.6,11.7,6.2,16.1,10.6c4.5,4.5,8,9.8,10.5,15.9c2.6,6.2,3.9,12.7,3.9,19.5c0,3.7-0.4,7.3-1.1,10.7
		c-0.7,3.4-1.5,6.3-2.4,8.5c-0.9,2.2-2.1,4.5-3.6,6.9c-1.5,2.4-2.6,4-3.4,5c-0.8,1-1.8,2.2-3.1,3.7c3,1.9,6,3.4,9.1,4.3
		c3.1,1,7,1.7,11.7,2.2v9.2c-2.9-0.3-5.5-0.6-7.9-1c-3.2-0.4-6.2-1-8.9-2c-2.7-0.9-4.8-1.8-6.2-2.6c-1.4-0.8-3.2-1.9-5.4-3.4
		c-9.2,6.1-18.9,9.1-29.2,9.1c-7.6,0-14.6-1.4-21-4.2c-6.5-2.8-11.8-6.5-16.2-11.2c-4.3-4.7-7.7-10-10.1-16.1
		C2407.8,1179.2,2406.6,1173,2406.6,1166.5z M2418,1163.1c0,0.3,0,0.7,0,1c0,4.2,0.5,7.9,1.4,11.2c7.3-2.4,13.9-3.6,19.8-3.6
		c9.7,0,18.4,2.3,26.2,7c2.4,1.4,4.6,2.8,6.6,4.4c2.1,1.6,6.6,5.2,13.6,10.9c3.9-3.5,6.8-7.7,8.8-12.5s3-10,3-15.5
		c0-7.7-1.8-14.6-5.4-20.8c-3.6-6.2-8.5-11-14.6-14.4c-6.1-3.4-12.8-5.1-20.1-5.1h-0.1c-6.9,0-13.3,1.6-19.1,4.7
		s-10.5,7.6-14.1,13.3C2420.4,1149.4,2418.4,1155.9,2418,1163.1z M2421.4,1184.3c1.8,3.7,3.9,6.9,6.5,9.7c2.5,2.8,5.1,5,7.6,6.6
		c2.5,1.6,5.3,2.9,8.1,3.9c2.9,1,5.4,1.7,7.6,2c2.2,0.3,4.3,0.5,6.3,0.5h0.1c4.2,0,8.2-0.7,12-2c3.8-1.3,6.9-2.8,9.1-4.5
		c-1-0.9-3.5-3-7.3-6.1c-3.9-3.1-5.9-4.8-6.1-4.9c-8.5-5.8-17.6-8.7-27.3-8.7c-2.4,0-4.7,0.2-6.9,0.5c-2.2,0.4-4,0.7-5.2,1.1
		C2424.7,1183.1,2423.2,1183.7,2421.4,1184.3z"/>
	<path class="st0" d="M2524.7,1179.3v-61.6h10.9v61.6c0,3.2,0.1,5.5,0.2,7.1c0.1,1.6,0.5,3.5,1.2,5.9c0.7,2.3,1.8,4.5,3.2,6.6
		c1.7,2.5,4.1,4.5,7.1,5.9c3,1.5,6.3,2.2,9.8,2.2c3.5,0,6.7-0.7,9.7-2.2c3-1.5,5.3-3.4,7-5.8c1.5-2,2.5-4.2,3.2-6.5
		c0.7-2.3,1.1-4.3,1.2-5.9c0.1-1.6,0.2-4.1,0.2-7.3v-61.6h10.9v61.6c0,0.5,0,0.9,0,1.3c0,2.7-0.1,5-0.3,7.2
		c-0.3,2.5-0.8,5.1-1.5,7.8c-0.7,2.7-1.9,5.2-3.4,7.5c-1.5,2.3-3.5,4.4-5.9,6.2c-5.8,4.9-12.8,7.4-21.1,7.4c-3.8,0-7.6-0.6-11.4-1.8
		c-3.8-1.2-7.2-3.1-10-5.6c-2-1.6-3.7-3.4-5.1-5.3c-1.4-2-2.5-3.9-3.3-5.7c-0.8-1.8-1.4-3.9-1.8-6.3c-0.4-2.4-0.7-4.4-0.8-6.2
		C2524.8,1184,2524.7,1181.9,2524.7,1179.3z"/>
	<path class="st0" d="M2608.6,1214.9v-97.2h53.8v9.6h-43.3v33.7h43v9.6h-43v34.6h43.3v9.6H2608.6z"/>
</g>
<g>
	<path class="st1" d="M2519,501.1c16.9-40.8,24.8-83.6,27.7-122.7c-17.1,27.5-39.4,69.4-54.1,118.4L2519,501.1z"/>
	<path class="st1" d="M1973.6,424.3L1973.6,424.3c-1-1.3-2-2.5-3-3.8C1971.6,421.8,1972.6,423.1,1973.6,424.3z"/>
	<g>
		<path class="st2" d="M1688.9,441h53.3h50.5v50.5v51.1l27.2-33.3c-0.2-0.5-0.5-1.1-0.7-1.6c-1.4-3.4-2.7-6.9-4-10.3
			c-0.3-0.8-0.6-1.5-0.8-2.3c-0.1-0.2-0.1-0.3-0.2-0.5c-22.4-63.1-19.3-130.1-9.4-184c-123-28.8-249.7,22-249.7,22
			s24.4,81.5,83.3,154.3V441H1688.9z"/>
	</g>
	<g>
		<path class="st3" d="M1837.6,201.5c0,0-21.1,45.6-32.8,109.2c0,0,0,0,0,0c0,0,0,0,0,0c19.4,4.6,39.2,10.8,57.9,19.9
			c44.6,21.7,80.2,55,107.9,90c1,1.3,2,2.5,3,3.8l14.8,2.4c2-35.2,8.1-73.8,21.9-111.2C1936.8,237,1837.6,201.5,1837.6,201.5z"/>
		<path class="st4" d="M1970.6,420.6c-27.7-35-63.3-68.3-107.9-90c-18.7-9.1-38.5-15.3-57.9-19.9c0,0,0,0,0,0c0,0.2-0.1,0.3-0.1,0.5
			c-10,54-12.8,120.5,9.5,183.5c0.1,0.2,0.1,0.3,0.2,0.5c0.3,0.8,0.6,1.5,0.8,2.3c1.3,3.6,2.7,7.1,4.2,10.6c0.2,0.4,0.4,0.8,0.5,1.2
			l70.7-86.6l8.6-10.6l13.4,2.2l60.9,9.9C1972.6,423.1,1971.6,421.8,1970.6,420.6z"/>
	</g>
	<path class="st5" d="M2078.3,430.7L2187,298.5l8.7-10.5l13.4,2.2l98.1,16.3c24-103.5-0.2-203.8-0.2-203.8s-181.1,26.8-266.3,153.2
		c-12.8,19-22.7,39.2-30.3,59.8c23.4,25,44.2,54.3,58.4,88.2C2072.5,412.7,2075.6,421.7,2078.3,430.7z"/>
	<path class="st6" d="M2070.6,440.1l6.3-7.7l1.4-1.8c-2.7-9-5.9-18-9.6-26.9c-14.2-33.9-35-63.2-58.4-88.2
		c-13.8,37.3-19.9,76-21.9,111.2L2070.6,440.1z"/>
	<path class="st7" d="M2393.7,320.8l4.8,12.7l59.2,157.7l4.8,0.8l30.1,4.8c14.6-49,37-90.9,54.1-118.4c6.2-80.7-8.7-145.8-8.7-145.8
		s-109,14.7-202.7,78.5l44.8,7.4L2393.7,320.8z"/>
	<path class="st8" d="M2619,517.2c26.8-17.8,54.8-31.4,80.9-41.7c-53.3-82.2-129.3-132.1-129.3-132.1s-10.3,12.9-23.9,35
		c-3,39.1-10.9,81.8-27.7,122.7L2619,517.2z"/>
	<g>
		<path class="st9" d="M2519,501.1c17.8-41.8,24.7-82.5,27.7-122.7c-17.1,27.5-39.4,69.4-54.1,118.4L2519,501.1
			C2519.1,500.8,2519.5,500,2519,501.1z"/>
		<path class="st10" d="M2491.2,501.7"/>
		<polygon class="st10" points="2492.6,496.8 2492.6,496.8 2492.6,496.8 		"/>
	</g>
	<g>
		<path class="st11" d="M2425.4,590l42.1-51.8l147,23.6l16.2,42.5c10.4,5.3,20.3,11.3,29.7,18l-30.3-79.6l-171.3-27.5l-77.3,95
			c0,0,0.1,0,0.1-0.1C2395.6,602,2410.3,595.3,2425.4,590z"/>
		<polygon class="st12" points="2119.4,451.5 2213.9,336.5 2360.8,360.8 2413.1,500.2 2318.6,615.2 2285.3,609.7 2285.3,631.3 
			2327.2,638.2 2437.4,504.2 2376.4,341.8 2205.3,313.5 2095.1,447.4 2147.4,586.8 2170.2,586.8 		"/>
		<path class="st13" d="M1849.2,644l-25.8-68l94.2-115.3l147,23.9l39.5,104.3c9.3,3.2,18.2,7,26.9,11.4v-0.6l-50.9-134.1
			l-171.2-27.8l-109.7,134.3l33.7,89C1838.1,655.1,1843.5,649.4,1849.2,644z"/>
		<g>
			<path class="st14" d="M2740.3,719c3,6.5,5.7,13.1,8.2,19.9c2.1,5.9,4,11.8,5.7,17.8c1.9-2.5,3.7-5,5.5-7.5
				c88-124.4,48.9-303.3,48.9-303.3s-49.2,6.2-108.8,29.7c22.3,34.4,40.7,74.5,47.8,119C2754.7,637.6,2750.2,680.2,2740.3,719z"/>
			<path class="st15" d="M2747.8,594.5c-7.1-44.4-25.5-84.5-47.8-119c-26.1,10.3-54.1,23.8-80.9,41.7l14.7,2.4l13.4,2.1l4.9,12.7
				l46.5,121.9c17.2,18.8,31.2,39.8,41.7,62.6C2750.2,680.2,2754.7,637.6,2747.8,594.5z"/>
		</g>
	</g>
</g>
<g>
	<g>
		<g>
			<path class="st16" d="M151.6,1023.7l221.9-531.5H431l219.8,531.5H586l-61.7-148.3H276.8l-61,148.3H151.6z M294.7,825.6h211.7
				L400.2,559.2L294.7,825.6z"/>
		</g>
	</g>
	<g>
		<g>
			<path class="st16" d="M708,1214.1V637.3h50.5v81.2c16.1-28.9,38-51.5,65.7-67.8c27.7-16.2,59.7-24.3,95.9-24.3
				c25.2,0,48.7,3.9,70.5,11.8c21.7,7.8,40.3,18.4,55.6,31.8c15.3,13.3,28.5,28.9,39.6,46.5c11.1,17.7,19.3,36.3,24.5,55.8
				c5.3,19.5,7.9,39.5,7.9,59.9c0,26.8-4.8,52.5-14.4,77c-9.6,24.5-22.8,46-39.6,64.6c-16.8,18.5-37.7,33.3-62.8,44.3
				c-25,11-52.1,16.4-81.3,16.4c-20.3,0-39.7-2.7-58-8.2c-18.3-5.5-34-12.7-47-21.7c-13-9-24-18.6-33.1-28.7
				c-9.1-10.2-16-20.5-20.7-31v78.8v190.3H708z M757.8,831.6c0,43.4,14.8,79.9,44.5,109.5c29.2,29.2,65.5,43.7,109,43.7
				c43.7,0,80.2-14.6,109.6-43.9c29.3-29.2,44-65.9,44-110v-0.7c0-18.7-3.3-36.9-9.8-54.7c-6.6-17.8-16-34.2-28.4-49.1
				c-12.4-14.9-28.7-27-48.9-36.2c-20.2-9.2-42.8-13.8-67.8-13.8c-42.5,0-78.9,15.1-109,45.1C772.2,751.5,757.8,788.2,757.8,831.6z"
				/>
		</g>
	</g>
	<g>
		<g>
			<path class="st16" d="M1198.8,566.2v-74h53.3v74H1198.8z M1198.8,1023.7V637.3h53.3v386.3H1198.8z"/>
		</g>
	</g>
	<g>
		<g>
			<path class="st16" d="M1331.7,830.2c0-37.9,8.5-72.4,25.5-103.4c17-31,40.8-55.5,71.3-73.4c30.5-17.9,64.8-26.9,102.8-26.9
				c39,0,72.6,9.1,100.8,27.4c28.2,18.2,47.3,39,57.1,62.3v-81.9v-142h53.3v531.5h-51.2v-79.5c-14.7,27.3-35.4,49.2-62.1,65.7
				c-26.7,16.5-59.1,24.7-97.2,24.7c-30,0-57.8-5.6-83.3-16.8c-25.5-11.2-46.6-26.2-63.5-45c-16.9-18.8-30.1-40.5-39.5-65.1
				C1336.4,883.1,1331.7,857.2,1331.7,830.2z M1385,830.9c0.2,19.6,3.8,38.5,10.7,56.7c6.9,18.2,16.6,34.6,29.2,49.1
				c12.6,14.6,28.9,26.2,48.9,35c20,8.7,42.1,13.1,66.4,13.1c21.2,0,41.4-4,60.4-11.9c19-7.9,35.4-19,49.2-33.2
				c28.7-29.4,43.1-64.5,43.1-105.3c0-1.9,0-3.7,0-5.6c0-43.1-14.8-79.2-44.5-108.1c-28.9-29.6-65.2-44.4-108.9-44.4
				c-44.4,0-81.2,14.8-110.5,44.3c-29.3,29.5-43.9,66-43.9,109.7V830.9z"/>
		</g>
	</g>
	<g>
		<g>
			<path class="st16" d="M1822.5,830.9c0-37.7,8.4-72.1,25.3-103.1c16.9-31,40.8-55.6,71.7-73.9c30.9-18.2,65.5-27.4,104-27.4
				c38.5,0,71.9,9.3,100.1,27.9c28.2,18.6,47.5,40.2,57.8,64.9v-81.9h53.3v386.3h-53.3v-79.5c-15,28.7-36.3,51-64.1,66.7
				c-27.8,15.7-59.1,23.6-93.8,23.6c-24.7,0-47.7-3.7-69.2-11c-21.5-7.4-40.2-17.5-56.2-30.3c-16-12.8-29.7-27.8-41.2-44.8
				c-11.5-17-20.1-35.6-25.9-55.6C1825.4,872.8,1822.5,852.1,1822.5,830.9z M1875.8,831.6c0.2,18.2,3.6,36,10,53.5
				c6.4,17.5,15.7,33.8,27.8,49c12.2,15.2,28.4,27.4,48.7,36.7c20.3,9.3,43.2,14,68.6,14c33.2,0,61.9-8.6,86.3-25.7
				c24.4-17.1,42-39.8,52.7-68c8.6-18.2,12.9-38.5,12.9-60.9c0-1.6,0-3.3,0-4.9c0-20.3-4.1-39.2-12.2-56.7
				c-11-27.5-28.9-49.8-53.9-66.8c-25-17-54.1-25.5-87.2-25.5c-44.1,0-80.8,14.9-110,44.8c-29.2,29.8-43.8,66.4-43.8,109.8V831.6z"
				/>
		</g>
	</g>
	<g>
		<g>
			<path class="st16" d="M2307.4,831.2c0-37.4,8.8-71.7,26.5-103.1c17.6-31.3,42.1-56.1,73.3-74.3c31.2-18.2,65.7-27.3,103.6-27.3
				c27.4,0,53.2,4.7,77.7,14.2c24.4,9.5,45.7,23,64,40.5c22.2,21.5,38.5,46.5,48.7,75c8.2,22.4,12.4,45.7,12.6,69.8
				c0,6.6-0.3,13.1-1,19.6h-352c0.7,23.2,5.8,44.2,15.4,63.1c9.6,18.9,21.8,34,36.6,45.5c14.8,11.5,30.8,20.3,47.9,26.4
				c16.4,5.9,32.7,8.7,49.1,8.4c0.7,0,1.3,0,1.7,0c29.7,0,56.1-7.1,79.2-21.1c23.1-14.1,41-33.8,53.6-59.2h55.4
				c-17.5,41.1-43.7,72.6-78.5,94.3c-32.7,21-69.3,31.6-109.7,31.6c-25.9,0-50.1-4-72.6-11.9c-22.4-7.9-41.5-18.6-57.3-32.1
				c-15.8-13.4-29.3-28.9-40.7-46.3c-11.3-17.4-19.8-35.8-25.3-55C2310.1,869.9,2307.4,850.6,2307.4,831.2z M2361.4,803.2H2660
				c-1.9-34.7-17.4-65.5-46.6-92.3c-28.3-25.9-61-38.8-98.2-38.8c-1.4,0-2.7,0-3.9,0c-40.9,0-75.5,12.9-103.8,38.7
				C2379.4,736.4,2363.9,767.3,2361.4,803.2z"/>
		</g>
	</g>
</g>
</svg>
