<svg id="Calque_1" data-name="Calque 1" xmlns="http://www.w3.org/2000/svg" viewBox="0 0 2665.77 1114.14"><defs><style>.cls-1{fill:#ffffff;}</style></defs><title>logo_apidae_mono</title><path class="cls-1" d="M855.09,1214.93v-97.21H866v87.59h37v9.62Z" transform="translate(-151.63 -102.65)"/><path class="cls-1" d="M911.52,1142.14l9.17-24.43h9.23l-10.26,24.43Z" transform="translate(-151.63 -102.65)"/><path class="cls-1" d="M951.15,1214.93v-97.21h10.52v97.21Z" transform="translate(-151.63 -102.65)"/><path class="cls-1" d="M981.48,1214.93v-97.21h11l56.94,81.18-.13-81.18h10.58v97.21h-10.58l-57.65-81.82.26,81.82Z" transform="translate(-151.63 -102.65)"/><path class="cls-1" d="M1079.27,1214.93v-97.21h49.38v9.62h-38.86v34.12h38.6v9.62h-38.6v43.86Z" transform="translate(-151.63 -102.65)"/><path class="cls-1" d="M1138.59,1166.7v-.13a51.52,51.52,0,0,1,4.07-20.49,47.6,47.6,0,0,1,11-16.06,50.58,50.58,0,0,1,16.16-10.26,53,53,0,0,1,39.42.16,50,50,0,0,1,16.2,10.56,49,49,0,0,1,10.74,16,51.74,51.74,0,0,1,0,39.68,48.27,48.27,0,0,1-26.89,26.6,52.11,52.11,0,0,1-20,3.88,51.32,51.32,0,0,1-20-3.94,49.64,49.64,0,0,1-30.65-46Zm10.9-.35a41.6,41.6,0,0,0,5.2,20.6,38.42,38.42,0,0,0,14.36,14.71,39.41,39.41,0,0,0,20.33,5.38,39.24,39.24,0,0,0,34.72-20.37,42.74,42.74,0,0,0,2.08-36,40.12,40.12,0,0,0-8.27-13,40.38,40.38,0,0,0-49-6.57,38.49,38.49,0,0,0-14.3,14.74,41.45,41.45,0,0,0-5.13,20.38Z" transform="translate(-151.63 -102.65)"/><path class="cls-1" d="M1253.95,1214.93v-97.21h25.33a90.79,90.79,0,0,1,17.09,1.25,31.05,31.05,0,0,1,10.23,3.75,25.82,25.82,0,0,1,9.62,10.77,33.47,33.47,0,0,1,3.65,15.39v.71a30.22,30.22,0,0,1-5.77,18.34,23,23,0,0,1-9.07,7.66,42.16,42.16,0,0,1-12.6,3l24.17,36.36h-11.8l-27.44-42.45h3.14q4.74,0,7.7-.16a34.2,34.2,0,0,0,7.18-1.35,16.1,16.1,0,0,0,6.67-3.43,24.9,24.9,0,0,0,4.75-28.63A19,19,0,0,0,1292,1128a82.33,82.33,0,0,0-11.86-.67h-15.26v87.59Z" transform="translate(-151.63 -102.65)"/><path class="cls-1" d="M1332,1214.93v-97.21h15.2l36,81.57,35.85-81.57h15.07v97.21H1424l.26-86.44-37.64,86.44h-7l-37.83-86.44.26,86.44Z" transform="translate(-151.63 -102.65)"/><path class="cls-1" d="M1445,1214.93l40.59-97.21h10.52l40.21,97.21h-11.86l-11.29-27.12h-45.27l-11.16,27.13Zm26.16-36.23h38.73L1490.43,1130Z" transform="translate(-151.63 -102.65)"/><path class="cls-1" d="M1538.21,1127.33v-9.62h58.87v9.62h-24v87.59h-10.9v-87.59Z" transform="translate(-151.63 -102.65)"/><path class="cls-1" d="M1607.71,1214.93v-97.21h10.52v97.21Z" transform="translate(-151.63 -102.65)"/><path class="cls-1" d="M1633.43,1166.7v-.13a51.55,51.55,0,0,1,4.07-20.49,47.6,47.6,0,0,1,11-16.06,50.58,50.58,0,0,1,16.16-10.26,53,53,0,0,1,39.42.16,50,50,0,0,1,16.2,10.56,49,49,0,0,1,10.73,16,51.75,51.75,0,0,1,0,39.68,48.27,48.27,0,0,1-26.89,26.6,52.11,52.11,0,0,1-20,3.88,51.32,51.32,0,0,1-20-3.94,49.64,49.64,0,0,1-30.65-46Zm10.9-.35a41.6,41.6,0,0,0,5.19,20.6,38.44,38.44,0,0,0,14.36,14.71,39.42,39.42,0,0,0,20.33,5.38,39.23,39.23,0,0,0,34.72-20.37,42.75,42.75,0,0,0,2.08-36,40.13,40.13,0,0,0-8.27-13,40.37,40.37,0,0,0-49-6.57,38.48,38.48,0,0,0-14.3,14.74,41.45,41.45,0,0,0-5.13,20.38Z" transform="translate(-151.63 -102.65)"/><path class="cls-1" d="M1749.75,1214.93v-97.21h11l56.94,81.18-.13-81.18h10.58v97.21h-10.58l-57.65-81.82.26,81.82Z" transform="translate(-151.63 -102.65)"/><path class="cls-1" d="M1876.46,1127.33v-9.62h58.87v9.62h-24v87.59h-10.9v-87.59Z" transform="translate(-151.63 -102.65)"/><path class="cls-1" d="M1941.35,1166.7v-.13a51.59,51.59,0,0,1,4.07-20.49,47.63,47.63,0,0,1,11-16.06,50.58,50.58,0,0,1,16.16-10.26,53,53,0,0,1,39.42.16,50,50,0,0,1,16.2,10.56,49,49,0,0,1,10.74,16,51.74,51.74,0,0,1,0,39.68,48.27,48.27,0,0,1-26.89,26.6,52.12,52.12,0,0,1-20,3.88,51.32,51.32,0,0,1-20-3.94,49.64,49.64,0,0,1-30.65-46Zm10.9-.35a41.62,41.62,0,0,0,5.19,20.6,38.44,38.44,0,0,0,14.36,14.71,39.42,39.42,0,0,0,20.33,5.38,39.24,39.24,0,0,0,34.72-20.37,42.75,42.75,0,0,0,2.08-36,40.1,40.1,0,0,0-8.27-13,40.37,40.37,0,0,0-49-6.57,38.48,38.48,0,0,0-14.3,14.74,41.45,41.45,0,0,0-5.13,20.38Z" transform="translate(-151.63 -102.65)"/><path class="cls-1" d="M2057.35,1179.34v-61.62h10.9v61.62q0,4.74.16,7.12a27.29,27.29,0,0,0,1.22,5.87,22.68,22.68,0,0,0,3.24,6.57,17.93,17.93,0,0,0,7.12,5.93,22.8,22.8,0,0,0,19.53,0,17,17,0,0,0,7-5.83,22,22,0,0,0,3.24-6.48,26.75,26.75,0,0,0,1.22-5.9q.16-2.44.16-7.31v-61.62H2122v63q0,4-.32,7.18a49.38,49.38,0,0,1-1.48,7.76,25.27,25.27,0,0,1-3.41,7.5,25.7,25.7,0,0,1-5.86,6.16q-8.62,7.37-21.12,7.37a38.27,38.27,0,0,1-11.42-1.8,26.68,26.68,0,0,1-10-5.58,27.05,27.05,0,0,1-5.07-5.32,29.72,29.72,0,0,1-3.27-5.67,28.55,28.55,0,0,1-1.76-6.25,57.58,57.58,0,0,1-.77-6.22Q2057.35,1183.12,2057.35,1179.34Z" transform="translate(-151.63 -102.65)"/><path class="cls-1" d="M2140.2,1214.93v-97.21h25.33a90.76,90.76,0,0,1,17.09,1.25,31,31,0,0,1,10.23,3.75,25.82,25.82,0,0,1,9.62,10.77,33.45,33.45,0,0,1,3.66,15.39v.71a30.21,30.21,0,0,1-5.77,18.34,22.94,22.94,0,0,1-9.07,7.66,42.18,42.18,0,0,1-12.6,3l24.17,36.36H2191l-27.45-42.45h3.14q4.74,0,7.7-.16a34.2,34.2,0,0,0,7.18-1.35,16.1,16.1,0,0,0,6.67-3.43,24.89,24.89,0,0,0,4.74-28.63,19,19,0,0,0-14.81-10.9,82.37,82.37,0,0,0-11.86-.67H2151.1v87.59Z" transform="translate(-151.63 -102.65)"/><path class="cls-1" d="M2218.24,1214.93v-97.21h10.52v97.21Z" transform="translate(-151.63 -102.65)"/><path class="cls-1" d="M2243.63,1187.87h10.9a26,26,0,0,0,2.09,8.26,19.37,19.37,0,0,0,3.72,5.71,20.16,20.16,0,0,0,9.44,5.26,20.34,20.34,0,0,0,4.21.45,19.52,19.52,0,0,0,13.65-5.34,17.28,17.28,0,0,0,5.81-13.26,19,19,0,0,0-1.54-8,13.13,13.13,0,0,0-5.36-5.66,51.29,51.29,0,0,0-6.26-3.35q-2.44-1-8.09-2.83l-1.56-.58-3.92-1.21q-1.41-.44-4.39-1.69a32.3,32.3,0,0,1-4.84-2.44,41.71,41.71,0,0,1-4.33-3.27,18.29,18.29,0,0,1-3.88-4.4,25.05,25.05,0,0,1-2.44-5.62,23.82,23.82,0,0,1-1-7.09v-.51a24.57,24.57,0,0,1,4-14,25.76,25.76,0,0,1,10.65-9.26,33.73,33.73,0,0,1,21.45-2.21,28.67,28.67,0,0,1,7.13,2.73,25,25,0,0,1,6.22,4.71,24.35,24.35,0,0,1,4.61,7.15,30.23,30.23,0,0,1,2.36,9.65h-10.9a32.64,32.64,0,0,0-1-4.12,21.47,21.47,0,0,0-1.9-4.19,15.68,15.68,0,0,0-3-3.9,14.34,14.34,0,0,0-4.66-2.67,18.86,18.86,0,0,0-6.65-1.1,18.15,18.15,0,0,0-12.66,4.66,15.65,15.65,0,0,0-5.14,12.17,17.22,17.22,0,0,0,.55,4.5,14.65,14.65,0,0,0,1.45,3.59,11.19,11.19,0,0,0,2.65,3,27.35,27.35,0,0,0,3.39,2.39,38.54,38.54,0,0,0,4.39,2.14q2.75,1.17,5,1.93l5.74,2,1.15.36a70.2,70.2,0,0,1,12.36,5.53q11.32,7.37,11.38,20.76a28.68,28.68,0,0,1-2.19,11.15,26.75,26.75,0,0,1-15.63,15.16,36,36,0,0,1-27.4-1.06,26.75,26.75,0,0,1-10.94-9.91A30.47,30.47,0,0,1,2243.63,1187.87Z" transform="translate(-151.63 -102.65)"/><path class="cls-1" d="M2310.06,1127.33v-9.62h58.87v9.62h-24v87.59H2334v-87.59Z" transform="translate(-151.63 -102.65)"/><path class="cls-1" d="M2379.57,1214.93v-97.21h10.52v97.21Z" transform="translate(-151.63 -102.65)"/><path class="cls-1" d="M2406.57,1166.46a50.33,50.33,0,0,1,6.57-25.33,48.71,48.71,0,0,1,18.23-18.31,50.65,50.65,0,0,1,25.89-6.77,51.62,51.62,0,0,1,20.1,3.94,48.09,48.09,0,0,1,26.66,26.58,50,50,0,0,1,3.87,19.5,55.84,55.84,0,0,1-3.48,19.23,42.2,42.2,0,0,1-3.57,6.89,57.33,57.33,0,0,1-3.42,5q-1.17,1.44-3.13,3.69a37.68,37.68,0,0,0,9.07,4.33,62.11,62.11,0,0,0,11.7,2.21v9.23q-4.36-.39-7.89-1a42.65,42.65,0,0,1-8.95-2,36.42,36.42,0,0,1-6.16-2.63q-2.09-1.21-5.36-3.4a52.67,52.67,0,0,1-50.22,4.91,47.33,47.33,0,0,1-16.15-11.19,51.88,51.88,0,0,1-10.12-16.09A50.18,50.18,0,0,1,2406.57,1166.46Zm11.41-3.39v1a40.77,40.77,0,0,0,1.41,11.21,64,64,0,0,1,19.83-3.59,49.79,49.79,0,0,1,26.18,7,64.51,64.51,0,0,1,6.61,4.39q3.08,2.34,13.61,10.93a34.49,34.49,0,0,0,8.76-12.47,40.08,40.08,0,0,0,3-15.48,40.65,40.65,0,0,0-5.42-20.84,38.26,38.26,0,0,0-14.57-14.44,40.47,40.47,0,0,0-20.12-5.12h-.13a39.24,39.24,0,0,0-19.09,4.74,37.51,37.51,0,0,0-14.05,13.32A40.44,40.44,0,0,0,2418,1163.06Zm3.4,21.28a40.39,40.39,0,0,0,6.45,9.75,37.16,37.16,0,0,0,7.64,6.64,44.49,44.49,0,0,0,15.72,6,43.18,43.18,0,0,0,6.32.48h.13a37.05,37.05,0,0,0,12-2,34,34,0,0,0,9.14-4.46q-1.54-1.41-7.35-6.09t-6.07-4.94a47.64,47.64,0,0,0-27.34-8.66,43,43,0,0,0-6.93.55,40.33,40.33,0,0,0-5.2,1.12Q2424.08,1183.31,2421.38,1184.34Z" transform="translate(-151.63 -102.65)"/><path class="cls-1" d="M2524.75,1179.34v-61.62h10.9v61.62q0,4.74.16,7.12a27.18,27.18,0,0,0,1.22,5.87,22.63,22.63,0,0,0,3.24,6.57,17.92,17.92,0,0,0,7.12,5.93,22.8,22.8,0,0,0,19.53,0,17,17,0,0,0,7-5.83,22,22,0,0,0,3.24-6.48,26.65,26.65,0,0,0,1.22-5.9q.16-2.44.16-7.31v-61.62h10.9v63q0,4-.32,7.18a49.18,49.18,0,0,1-1.48,7.76,25.24,25.24,0,0,1-3.41,7.5,25.69,25.69,0,0,1-5.86,6.16q-8.62,7.37-21.12,7.37a38.27,38.27,0,0,1-11.41-1.8,26.7,26.7,0,0,1-10-5.58,27.07,27.07,0,0,1-5.06-5.32,29.72,29.72,0,0,1-3.27-5.67,28.45,28.45,0,0,1-1.76-6.25,56.37,56.37,0,0,1-.77-6.22Q2524.75,1183.12,2524.75,1179.34Z" transform="translate(-151.63 -102.65)"/><path class="cls-1" d="M2608.56,1214.93v-97.21h53.8v9.62h-43.29v33.73h43v9.62h-43v34.63h43.29v9.62Z" transform="translate(-151.63 -102.65)"/><path class="cls-1" d="M1973.6,424.34h0q-1.47-1.89-3-3.78Q1972.14,422.45,1973.6,424.34Z" transform="translate(-151.63 -102.65)"/><path class="cls-1" d="M2307,102.65s-181.14,26.81-266.34,153.15a280.26,280.26,0,0,0-30.34,59.78c-73.57-78.56-172.8-114.12-172.8-114.12s-21.14,45.6-32.8,109.22c-123-28.76-249.68,22-249.68,22s24.39,81.46,83.35,154.31V441h154.31V542.68l27.18-33.28s0,0,0,0l0,0,70.69-86.57,8.62-10.56,13.44,2.19,64.9,10.56h0l10.86,1.77,82.15,13.36,6.3-7.67,1.44-1.75L2187,298.46l8.65-10.52,13.44,2.22,98.14,16.3C2331.28,203,2307,102.65,2307,102.65Z" transform="translate(-151.63 -102.65)"/><path class="cls-1" d="M2491.22,501.74" transform="translate(-151.63 -102.65)"/><polygon class="cls-1" points="2341.02 394.19 2341.01 394.2 2341.02 394.19 2341.02 394.19"/><path class="cls-1" d="M2425.42,590l42.1-51.76,147,23.65,16.21,42.51a241.3,241.3,0,0,1,29.65,18L2630,542.83l-171.26-27.55-77.27,95,.11-.07A248.22,248.22,0,0,1,2425.42,590Z" transform="translate(-151.63 -102.65)"/><polygon class="cls-1" points="1967.74 348.83 2062.28 233.83 2209.15 258.17 2261.48 397.56 2166.93 512.57 2133.67 507.05 2133.67 528.62 2175.58 535.57 2285.74 401.6 2224.76 239.19 2053.64 210.81 1943.48 344.8 1995.82 484.19 2018.56 484.19 1967.74 348.83"/><path class="cls-1" d="M1849.21,644l-25.77-68,94.18-115.29,147,23.89,39.55,104.29A214.21,214.21,0,0,1,2131,600.27v-.55l-50.87-134.14L1908.9,437.73,1799.19,572.07l33.74,89Q1840.64,652.13,1849.21,644Z" transform="translate(-151.63 -102.65)"/><path class="cls-1" d="M2808.76,445.84s-49.22,6.19-108.81,29.66c-53.31-82.15-129.28-132.11-129.28-132.11a402.66,402.66,0,0,0-23.95,35c6.16-80.73-8.65-145.75-8.65-145.75s-109,14.69-202.66,78.46l44.85,7.45,13.43,2.21,4.79,12.75,59.19,157.68,4.85.78,30.14,4.85,26.34,4.23L2619,517.16l14.75,2.37,13.45,2.15,4.87,12.74,46.49,121.95a246,246,0,0,1,41.75,62.6q4.51,9.75,8.2,19.92,3.2,8.8,5.74,17.79,2.83-3.71,5.54-7.54C2847.82,624.74,2808.76,445.84,2808.76,445.84Z" transform="translate(-151.63 -102.65)"/><path class="cls-1" d="M151.63,1023.68,373.56,492.2H431l219.82,531.48H586L524.3,875.39H276.79l-61,148.29Zm143-198.08H506.42L400.21,559.17Z" transform="translate(-151.63 -102.65)"/><path class="cls-1" d="M708,1214.08V637.34H758.5v81.24q24.19-43.39,65.73-67.76t95.89-24.34q37.85,0,70.45,11.77T1046.14,670a207.66,207.66,0,0,1,39.61,46.53,204.46,204.46,0,0,1,24.54,55.84,229,229,0,0,1,7.9,59.87,211.94,211.94,0,0,1-54,141.58q-25.23,27.81-62.75,44.26t-81.32,16.45a202,202,0,0,1-58-8.22q-27.52-8.23-47-21.71A189.15,189.15,0,0,1,782,975.89q-13.69-15.23-20.7-31v269.18Zm49.77-382.5q0,65,44.54,109.46,43.8,43.73,109,43.73,65.56,0,109.57-43.91t44-110v-.71a158,158,0,0,0-9.83-54.74,166.51,166.51,0,0,0-28.39-49.14q-18.6-22.38-48.91-36.2t-67.84-13.83q-63.8,0-109,45.13Q757.78,766.5,757.78,831.58Z" transform="translate(-151.63 -102.65)"/><path class="cls-1" d="M1198.83,566.18v-74h53.28v74Zm0,457.5V637.34h53.28v386.35Z" transform="translate(-151.63 -102.65)"/><path class="cls-1" d="M1331.69,830.17q0-56.9,25.53-103.42a189,189,0,0,1,71.31-73.41q45.76-26.87,102.83-26.87,58.49,0,100.85,27.36t57.08,62.3V492.2h53.3v531.48h-51.21V944.2a171,171,0,0,1-62.15,65.66q-40.08,24.7-97.17,24.69-45.07,0-83.29-16.79t-63.54-45a206,206,0,0,1-39.45-65.09A215.88,215.88,0,0,1,1331.69,830.17Zm53.3.71a164.6,164.6,0,0,0,39.91,105.79q18.93,21.87,48.85,35t66.36,13.11a155.24,155.24,0,0,0,60.42-11.9,145.38,145.38,0,0,0,49.19-33.21q43.08-44.09,43.08-105.3v-5.58q0-64.72-44.48-108.08-43.42-44.44-108.91-44.44-66.53,0-110.47,44.26T1385,830.17Z" transform="translate(-151.63 -102.65)"/><path class="cls-1" d="M1822.51,830.87q0-56.54,25.34-103.08t71.68-73.93q46.28-27.37,104-27.38t100.15,27.88q42.36,27.86,57.78,64.92V637.34h53.3v386.35h-53.3V944.2q-22.43,43.07-64.08,66.72t-93.85,23.63q-37,0-69.2-11t-56.16-30.29A202.39,202.39,0,0,1,1857,948.46a194.54,194.54,0,0,1-25.88-55.65A223,223,0,0,1,1822.51,830.87Zm53.3.71a160.06,160.06,0,0,0,10,53.5,173.79,173.79,0,0,0,27.82,49q18.24,22.74,48.69,36.72t68.63,14q49.73,0,86.32-25.71t52.71-68q12.95-27.29,12.95-60.86v-4.91a132.22,132.22,0,0,0-12.25-56.66q-16.47-41.28-53.92-66.81t-87.2-25.54q-66.2,0-110,44.79t-43.76,109.83Z" transform="translate(-151.63 -102.65)"/><path class="cls-1" d="M2307.36,831.21q0-56.06,26.46-103.07a196.32,196.32,0,0,1,73.28-74.32q46.78-27.36,103.58-27.35a213,213,0,0,1,77.67,14.21,190.41,190.41,0,0,1,64,40.48,195.65,195.65,0,0,1,48.74,75A208,208,0,0,1,2713.68,826a185,185,0,0,1-1,19.63h-352q1.08,34.81,15.43,63.08t36.64,45.51a172.84,172.84,0,0,0,47.86,26.36,138.68,138.68,0,0,0,49.09,8.45h1.75q44.52,0,79.23-21.13t53.63-59.16h55.41q-26.31,61.69-78.53,94.3-49.09,31.56-109.73,31.55-38.9,0-72.58-11.92t-57.32-32.08a213.7,213.7,0,0,1-40.66-46.27,201.82,201.82,0,0,1-25.25-55A210.85,210.85,0,0,1,2307.36,831.21Zm54-28H2660q-2.81-52.09-46.61-92.3Q2571,672.06,2515.26,672h-3.86q-61.38,0-103.79,38.65T2361.36,803.17Z" transform="translate(-151.63 -102.65)"/></svg>